<svg width="33" height="36" viewBox="0 0 33 36" fill="none" xmlns="http://www.w3.org/2000/svg">
<g clip-path="url(#clip0_125_71)">
<path d="M16.5 22.213C18.7782 22.213 20.625 20.2471 20.625 17.822C20.625 15.397 18.7782 13.4311 16.5 13.4311C14.2218 13.4311 12.375 15.397 12.375 17.822C12.375 20.2471 14.2218 22.213 16.5 22.213Z" stroke="white" stroke-width="2" stroke-linecap="round" stroke-linejoin="round"/>
<path d="M26.675 22.213C26.492 22.6545 26.4374 23.1442 26.5182 23.619C26.5991 24.0938 26.8118 24.5319 27.1287 24.8768L27.2113 24.9647C27.4669 25.2365 27.6698 25.5594 27.8082 25.9148C27.9466 26.2701 28.0178 26.651 28.0178 27.0357C28.0178 27.4204 27.9466 27.8013 27.8082 28.1567C27.6698 28.5121 27.4669 28.8349 27.2113 29.1068C26.9559 29.379 26.6526 29.5949 26.3187 29.7422C25.9849 29.8895 25.627 29.9653 25.2656 29.9653C24.9042 29.9653 24.5464 29.8895 24.2125 29.7422C23.8787 29.5949 23.5754 29.379 23.32 29.1068L23.2375 29.019C22.9134 28.6816 22.5019 28.4552 22.0558 28.3691C21.6098 28.283 21.1497 28.3411 20.735 28.536C20.3283 28.7215 19.9815 29.0296 19.7372 29.4223C19.4929 29.815 19.3618 30.2751 19.36 30.7461V30.9949C19.36 31.7713 19.0703 32.5159 18.5545 33.0648C18.0388 33.6138 17.3393 33.9222 16.61 33.9222C15.8807 33.9222 15.1812 33.6138 14.6655 33.0648C14.1497 32.5159 13.86 31.7713 13.86 30.9949V30.8632C13.8494 30.3787 13.702 29.9089 13.4372 29.5147C13.1724 29.1206 12.8023 28.8203 12.375 28.6531C11.9603 28.4582 11.5002 28.4001 11.0542 28.4862C10.6081 28.5723 10.1966 28.7986 9.8725 29.1361L9.79 29.2239C9.5346 29.4961 9.23131 29.712 8.89746 29.8593C8.56362 30.0066 8.20577 30.0824 7.84437 30.0824C7.48298 30.0824 7.12513 30.0066 6.79129 29.8593C6.45744 29.712 6.15415 29.4961 5.89875 29.2239C5.64306 28.952 5.44023 28.6292 5.30184 28.2738C5.16344 27.9184 5.09221 27.5375 5.09221 27.1528C5.09221 26.7681 5.16344 26.3872 5.30184 26.0318C5.44023 25.6765 5.64306 25.3536 5.89875 25.0818L5.98125 24.9939C6.29824 24.649 6.51088 24.2109 6.59176 23.7361C6.67263 23.2613 6.61803 22.7716 6.435 22.3301C6.2607 21.8972 5.97129 21.528 5.60239 21.2679C5.23349 21.0079 4.80121 20.8683 4.35875 20.8664H4.125C3.39565 20.8664 2.69618 20.558 2.18046 20.0091C1.66473 19.4601 1.375 18.7155 1.375 17.9391C1.375 17.1628 1.66473 16.4182 2.18046 15.8692C2.69618 15.3202 3.39565 15.0118 4.125 15.0118H4.24875C4.70387 15.0005 5.14526 14.8437 5.51554 14.5618C5.88582 14.2799 6.16786 13.8859 6.325 13.4311C6.50803 12.9896 6.56263 12.4999 6.48176 12.0251C6.40088 11.5503 6.18824 11.1122 5.87125 10.7672L5.78875 10.6794C5.53306 10.4076 5.33023 10.0847 5.19184 9.72934C5.05344 9.37397 4.98221 8.99305 4.98221 8.60836C4.98221 8.22367 5.05344 7.84275 5.19184 7.48738C5.33023 7.13201 5.53306 6.80916 5.78875 6.53729C6.04415 6.26512 6.34744 6.04921 6.68129 5.90189C7.01513 5.75458 7.37298 5.67875 7.73438 5.67875C8.09577 5.67875 8.45362 5.75458 8.78746 5.90189C9.12131 6.04921 9.4246 6.26512 9.68 6.53729L9.7625 6.62511C10.0866 6.96254 10.4981 7.18889 10.9442 7.27498C11.3902 7.36107 11.8503 7.30295 12.265 7.10812H12.375C12.7817 6.92258 13.1285 6.61451 13.3728 6.22182C13.6171 5.82914 13.7482 5.36899 13.75 4.898V4.64918C13.75 3.87281 14.0397 3.12824 14.5555 2.57927C15.0712 2.03029 15.7707 1.72188 16.5 1.72188C17.2293 1.72188 17.9288 2.03029 18.4445 2.57927C18.9603 3.12824 19.25 3.87281 19.25 4.64918V4.78091C19.2518 5.25189 19.3829 5.71205 19.6272 6.10473C19.8715 6.49742 20.2183 6.80549 20.625 6.99102C21.0397 7.18586 21.4998 7.24398 21.9458 7.15789C22.3919 7.0718 22.8034 6.84544 23.1275 6.50802L23.21 6.4202C23.4654 6.14803 23.7687 5.93211 24.1025 5.7848C24.4364 5.63749 24.7942 5.56166 25.1556 5.56166C25.517 5.56166 25.8749 5.63749 26.2087 5.7848C26.5426 5.93211 26.8458 6.14803 27.1012 6.4202C27.3569 6.69207 27.5598 7.01492 27.6982 7.37028C27.8366 7.72565 27.9078 8.10657 27.9078 8.49127C27.9078 8.87596 27.8366 9.25688 27.6982 9.61225C27.5598 9.96762 27.3569 10.2905 27.1012 10.5623L27.0187 10.6502C26.7018 10.9951 26.4891 11.4332 26.4082 11.908C26.3274 12.3828 26.382 12.8725 26.565 13.314V13.4311C26.7393 13.864 27.0287 14.2332 27.3976 14.4933C27.7665 14.7533 28.1988 14.8929 28.6412 14.8947H28.875C29.6043 14.8947 30.3038 15.2032 30.8195 15.7521C31.3353 16.3011 31.625 17.0457 31.625 17.822C31.625 18.5984 31.3353 19.343 30.8195 19.892C30.3038 20.4409 29.6043 20.7493 28.875 20.7493H28.7512C28.3088 20.7512 27.8765 20.8908 27.5076 21.1508C27.1387 21.4109 26.8493 21.7801 26.675 22.213V22.213Z" stroke="white" stroke-width="2" stroke-linecap="round" stroke-linejoin="round"/>
</g>
<defs>
<clipPath id="clip0_125_71">
<rect width="33" height="35.1276" fill="white" transform="translate(0 0.258224)"/>
</clipPath>
</defs>
</svg>
